<?xml version="1.0" encoding="UTF-8"?>
<svg width="16px" height="23px" viewBox="0 0 16 23" version="1.1" xmlns="http://www.w3.org/2000/svg" xmlns:xlink="http://www.w3.org/1999/xlink">
    <title>Shape</title>
    <g id="Page-1" stroke="none" stroke-width="1" fill="none" fill-rule="evenodd">
        <g id="Group" transform="translate(-48.000000, 0.000000)" fill="#212542" fill-rule="nonzero">
            <path d="M63,6.10367 L60,6.10367 L60,4.97725 C60,3.78226 59.5786,2.63622 58.8284,1.79124 C58.0783,0.946263 57.0609,0.471558 56,0.471558 C54.9391,0.471558 53.9217,0.946263 53.1716,1.79124 C52.4214,2.63622 52,3.78226 52,4.97725 L52,6.10367 L49,6.10367 C48.7348,6.10367 48.4804,6.22234 48.2929,6.43359 C48.1054,6.64483 48,6.93134 48,7.23009 L48,19.6207 C48,20.517 48.3161,21.3765 48.8787,22.0102 C49.4413,22.644 50.2044,23 51,23 L61,23 C61.7956,23 62.5587,22.644 63.1213,22.0102 C63.6839,21.3765 64,20.517 64,19.6207 L64,7.23009 C64,6.93134 63.8946,6.64483 63.7071,6.43359 C63.5196,6.22234 63.2652,6.10367 63,6.10367 Z M54,4.97725 C54,4.37975 54.2107,3.80674 54.5858,3.38424 C54.9609,2.96175 55.4696,2.7244 56,2.7244 C56.5304,2.7244 57.0391,2.96175 57.4142,3.38424 C57.7893,3.80674 58,4.37975 58,4.97725 L58,6.10367 L54,6.10367 L54,4.97725 Z M62,19.6207 C62,19.9195 61.8946,20.206 61.7071,20.4172 C61.5196,20.6285 61.2652,20.7472 61,20.7472 L51,20.7472 C50.7348,20.7472 50.4804,20.6285 50.2929,20.4172 C50.1054,20.206 50,19.9195 50,19.6207 L50,8.35651 L52,8.35651 L52,9.48293 C52,9.78168 52.1054,10.0682 52.2929,10.2794 C52.4804,10.4907 52.7348,10.6094 53,10.6094 C53.2652,10.6094 53.5196,10.4907 53.7071,10.2794 C53.8946,10.0682 54,9.78168 54,9.48293 L54,8.35651 L58,8.35651 L58,9.48293 C58,9.78168 58.1054,10.0682 58.2929,10.2794 C58.4804,10.4907 58.7348,10.6094 59,10.6094 C59.2652,10.6094 59.5196,10.4907 59.7071,10.2794 C59.8946,10.0682 60,9.78168 60,9.48293 L60,8.35651 L62,8.35651 L62,19.6207 Z" id="Shape"></path>
        </g>
    </g>
</svg>