<?xml version="1.0" encoding="UTF-8"?>
<svg width="16px" height="24px" viewBox="0 0 16 24" version="1.1" xmlns="http://www.w3.org/2000/svg" xmlns:xlink="http://www.w3.org/1999/xlink">
    <title>Group 2</title>
    <g id="Page-1" stroke="none" stroke-width="1" fill="none" fill-rule="evenodd">
        <g id="Group" fill="#212542" fill-rule="nonzero">
            <g id="Group-2" transform="translate(0.000000, 0.471558)">
                <path d="M7.29,17.691842 C7.38296,17.797542 7.49356,17.881442 7.61542,17.938642 C7.73728,17.995842 7.86799,18.025342 8,18.025342 C8.13201,18.025342 8.26272,17.995842 8.38458,17.938642 C8.50644,17.881442 8.61704,17.797542 8.70999845,17.691842 L12.8,13.069442 C13.75,11.999042 14.397,10.635042 14.6593,9.150012 C14.9216,7.664952 14.7873,6.125562 14.2735,4.726542 C13.7597,3.327522 12.8894,2.131722 11.7727,1.290392 C10.656,0.449065 9.34309,-3.37507799e-14 8,-3.37507799e-14 C6.65691,-3.37507799e-14 5.344,0.449065 4.22731,1.290392 C3.11062,2.131722 2.24033,3.327522 1.72652,4.726542 C1.2127,6.125562 1.07845,7.664952 1.34073,9.150012 C1.60301,10.635042 2.25005,11.999042 3.2,13.069442 L7.29,17.691842 Z M3.23,7.128052 C3.29833,6.324222 3.52502,5.547752 3.89352,4.855322 C4.26203,4.162892 4.76305,3.571992 5.36,3.125752 C6.1442,2.545242 7.06186,2.235952 8,2.235952 C8.93814,2.235952 9.8558,2.545242 10.64,3.125752 C11.233,3.570452 11.7311,4.157782 12.0987,4.845482 C12.4663,5.533182 12.6942,6.304172 12.7659,7.103002 C12.8376,7.901842 12.7514,8.708662 12.5135,9.465452 C12.2756,10.222242 11.8919,10.910242 11.39,11.479842 L8,15.301742 L4.61,11.479842 C4.10752,10.915742 3.72293,10.232442 3.48421,9.479602 C3.24548,8.726792 3.15864,7.923462 3.23,7.128052 Z M15,20.273642 L1,20.273642 C0.734784,20.273642 0.48043,20.392442 0.292893,20.603842 C0.105357,20.815242 0,21.102042 0,21.401042 C0,21.700042 0.105357,21.986842 0.292893,22.198242 C0.48043,22.409642 0.734784,22.528442 1,22.528442 L15,22.528442 C15.2652,22.528442 15.5196,22.409642 15.7071,22.198242 C15.8946,21.986842 16,21.700042 16,21.401042 C16,21.102042 15.8946,20.815242 15.7071,20.603842 C15.5196,20.392442 15.2652,20.273642 15,20.273642 Z" id="Shape"></path>
                <ellipse id="Oval" cx="8" cy="7.360872" rx="2" ry="1.95548"></ellipse>
            </g>
        </g>
    </g>
</svg>