<svg width="59" height="59" viewBox="0 0 59 59" fill="none" xmlns="http://www.w3.org/2000/svg">
<g clip-path="url(#clip0)">
<path d="M19.6767 29.4955C19.6767 27.5492 20.2539 25.6467 21.3354 24.0286C22.4169 22.4104 23.9541 21.1494 25.7524 20.4051C27.5507 19.6607 29.5293 19.4665 31.4381 19.8469C33.3468 20.2273 35.0998 21.1654 36.4753 22.5423C37.8508 23.9192 38.787 25.6731 39.1655 27.5823C39.544 29.4914 39.3478 31.4698 38.6016 33.2674C37.8554 35.0649 36.5928 36.6008 34.9736 37.6806C33.3544 38.7605 31.4513 39.3358 29.505 39.3338C28.2135 39.3338 26.9346 39.0793 25.7416 38.5847C24.5485 38.0902 23.4646 37.3653 22.5518 36.4516C21.639 35.5379 20.9153 34.4533 20.4219 33.2597C19.9286 32.0661 19.6754 30.787 19.6767 29.4955V29.4955ZM14.3622 29.4955C14.3701 32.4887 15.2649 35.4125 16.9336 37.8974C18.6024 40.3824 20.9701 42.3171 23.7378 43.4571C26.5055 44.597 29.5489 44.8912 32.4837 44.3024C35.4185 43.7136 38.1129 42.2682 40.2267 40.1489C42.3404 38.0295 43.7787 35.3313 44.3597 32.395C44.9408 29.4586 44.6386 26.416 43.4913 23.6513C42.344 20.8867 40.4031 18.524 37.9137 16.8619C35.4244 15.1997 32.4983 14.3126 29.505 14.3126C27.513 14.3126 25.5407 14.7056 23.7008 15.4691C21.861 16.2326 20.1899 17.3516 18.7832 18.762C17.3766 20.1724 16.262 21.8464 15.5033 23.6883C14.7447 25.5301 14.3569 27.5035 14.3622 29.4955V29.4955ZM41.7154 13.7521C41.7154 14.4529 41.9231 15.1379 42.3125 15.7205C42.7018 16.3032 43.2551 16.7573 43.9025 17.0254C44.5499 17.2936 45.2623 17.3638 45.9496 17.2271C46.6368 17.0904 47.2681 16.7529 47.7636 16.2574C48.2591 15.7619 48.5966 15.1306 48.7333 14.4433C48.87 13.7561 48.7998 13.0437 48.5317 12.3963C48.2635 11.7489 47.8094 11.1955 47.2267 10.8062C46.6441 10.4169 45.9591 10.2091 45.2584 10.2091V10.2091C44.3204 10.2118 43.4218 10.5862 42.7595 11.2504C42.0973 11.9145 41.7254 12.8142 41.7254 13.7521H41.7154ZM17.5849 53.5058C15.7164 53.4859 13.865 53.1474 12.1103 52.505C10.8332 52.0445 9.67434 51.3061 8.71739 50.3431C7.74126 49.3872 6.98629 48.2291 6.50551 46.9503C5.86215 45.1923 5.52367 43.3375 5.50466 41.4656C5.36455 38.363 5.33452 37.4622 5.33452 29.5455C5.33452 21.6288 5.33452 20.7381 5.50466 17.6254C5.52461 15.7569 5.86308 13.9055 6.50551 12.1508C6.98155 10.8695 7.73716 9.71047 8.71739 8.75791C9.66442 7.77097 10.8251 7.0143 12.1103 6.54603C13.865 5.9036 15.7164 5.56513 17.5849 5.54518C20.6975 5.30498 21.6383 5.30498 29.505 5.30498C37.3717 5.30498 38.3125 5.30498 41.4251 5.48513C43.2968 5.50531 45.1515 5.84375 46.9098 6.48598C48.1819 6.97783 49.337 7.73065 50.3006 8.69597C51.2642 9.66128 52.0149 10.8177 52.5045 12.0907C53.1581 13.8424 53.4969 15.6958 53.5053 17.5654C53.6555 20.678 53.6855 21.5688 53.6855 29.4855C53.6855 37.4022 53.6855 38.2929 53.5053 41.4056C53.4863 43.2774 53.1479 45.1323 52.5045 46.8902C52.016 48.1671 51.2633 49.3264 50.2958 50.2923C49.3282 51.2582 48.1675 52.0088 46.8897 52.495C45.1332 53.1433 43.2774 53.482 41.4051 53.4958C38.2925 53.6459 37.4017 53.676 29.485 53.676C21.5683 53.676 20.6775 53.676 17.5649 53.4958L17.5849 53.5058ZM17.3247 0.170629C14.8786 0.216596 12.4584 0.680328 10.1686 1.54179C8.19823 2.27837 6.41443 3.44023 4.94419 4.94467C3.44216 6.41887 2.27776 8.20132 1.5313 10.1691C0.682459 12.4582 0.225675 14.8741 0.180153 17.3152C0.0400342 20.4578 0 21.4687 0 29.4755C0 37.4822 2.98276e-07 38.4831 0.180153 41.6358C0.232129 44.0844 0.69565 46.5069 1.55131 48.8018C2.30968 50.7611 3.46875 52.5405 4.95434 54.0261C6.43993 55.5117 8.21932 56.6708 10.1786 57.4291C12.4749 58.2799 14.8966 58.7433 17.3447 58.8003C20.4874 58.9404 21.4882 58.9805 29.505 58.9805C37.5218 58.9805 38.5126 58.9805 41.6653 58.8003C44.1103 58.7438 46.5287 58.2804 48.8214 57.4291C50.7867 56.6825 52.5684 55.522 54.0458 54.0263C55.546 52.5525 56.7072 50.7697 57.4487 48.8018C58.309 46.5082 58.7727 44.0849 58.8198 41.6358C58.97 38.4931 59 37.4923 59 29.4755C59 21.4587 59 20.4678 58.8198 17.3152C58.7739 14.8691 58.3102 12.4489 57.4487 10.1591C56.6904 8.20139 55.5324 6.42315 54.0488 4.93776C52.5651 3.45236 50.7882 2.29239 48.8314 1.53178C46.5378 0.671469 44.1145 0.207795 41.6653 0.160621C38.5226 0.0104935 37.5118 -0.0195312 29.505 -0.0195312C21.4982 -0.0195312 20.4974 -0.0195319 17.3447 0.160621" fill="black"/>
</g>
<defs>
<clipPath id="clip0">
<rect width="59" height="59" fill="white"/>
</clipPath>
</defs>
</svg>
