<svg width="84" height="544" viewBox="0 0 84 544" fill="none" xmlns="http://www.w3.org/2000/svg">
<g clip-path="url(#clip0)">
<path d="M1.44531 544L1.44531 525.543H35.0049L1.44531 496.226L1.44531 474.014L32.9815 503.043L82.5258 472.108V493.598L46.5093 515.52L57.4068 525.543H82.5548V544H1.44531Z" fill="white"/>
<path d="M42 393.197C16.852 393.197 0 380.286 0 354.002C0 327.717 16.852 314.806 42 314.806C67.148 314.806 84 327.717 84 354.002C84 380.286 67.148 393.197 42 393.197ZM42 333.812C29.2237 333.812 15.9849 337.74 15.9849 354.002C15.9849 370.263 29.2237 374.191 42 374.191C54.7763 374.191 68.0151 370.263 68.0151 354.002C68.0151 337.74 54.8052 333.812 42 333.812Z" fill="white"/>
<path d="M1.44531 220.615L1.44531 169.924H55.9326C65.8183 169.924 72.062 172.264 76.4267 176.596C82.2368 182.402 84 190.403 84 199.386C84 217.698 75.9931 228.732 56.5396 228.732H49.1108V210.419H56.3662C65.6738 210.419 68.998 206.78 68.998 199.386C68.998 191.991 65.6449 188.352 56.3662 188.352H17.2856V220.587H1.44531V220.615Z" fill="white"/>
<path d="M42 78.4197C16.852 78.4197 0 65.4797 0 39.2242C0 12.9398 16.852 0.0286865 42 0.0286865C67.148 0.0286865 84 12.9398 84 39.2242C84 65.4797 67.148 78.4197 42 78.4197ZM42 19.0055C29.2237 19.0055 15.9849 22.9336 15.9849 39.1953C15.9849 55.4569 29.2237 59.3852 42 59.3852C54.7763 59.3852 68.0151 55.4569 68.0151 39.1953C68.0151 22.9336 54.8052 19.0055 42 19.0055Z" fill="white"/>
</g>
<defs>
<clipPath id="clip0">
<rect width="544" height="84" fill="white" transform="translate(0 544) rotate(-90)"/>
</clipPath>
</defs>
</svg>
