<svg width="130" height="20" viewBox="0 0 130 20" fill="none" xmlns="http://www.w3.org/2000/svg">
<path d="M0 0.343994H4.41064V8.33436L11.4166 0.343994H16.7245L9.78762 7.8526L17.1801 19.6489H12.0447L6.80578 11.0735L4.41064 13.6682V19.6558H0V0.343994Z" fill="#424140"/>
<path d="M36.0375 10C36.0375 4.01239 39.1229 0 45.404 0C51.6852 0 54.7706 4.01239 54.7706 10C54.7706 15.9876 51.6852 20 45.404 20C39.1229 20 36.0375 15.9876 36.0375 10ZM50.2288 10C50.2288 6.95802 49.2901 3.80592 45.404 3.80592C41.518 3.80592 40.5793 6.95802 40.5793 10C40.5793 13.042 41.518 16.1941 45.404 16.1941C49.2901 16.1941 50.2288 13.0489 50.2288 10Z" fill="#424140"/>
<path d="M77.2794 0.343994H89.3932V13.3172C89.3932 15.6709 88.8341 17.1575 87.7987 18.1967C86.4113 19.5801 84.4993 19.9999 82.3527 19.9999C77.9766 19.9999 75.3398 18.0935 75.3398 13.4617V11.6929H79.716V13.4204C79.716 15.6365 80.5857 16.428 82.3527 16.428C84.1197 16.428 84.9894 15.6296 84.9894 13.4204V4.1155H77.2863V0.343994H77.2794Z" fill="#424140"/>
<path d="M111.26 10C111.26 4.01239 114.352 0 120.627 0C126.908 0 129.993 4.01239 129.993 10C129.993 15.9876 126.908 20 120.627 20C114.352 20 111.26 15.9876 111.26 10ZM125.458 10C125.458 6.95802 124.519 3.80592 120.633 3.80592C116.747 3.80592 115.809 6.95802 115.809 10C115.809 13.042 116.747 16.1941 120.633 16.1941C124.519 16.1941 125.458 13.0489 125.458 10Z" fill="#424140"/>
</svg>
