<svg width="129" height="49" viewBox="0 0 129 49" fill="none" xmlns="http://www.w3.org/2000/svg">
<g clip-path="url(#clip0)">
<path d="M27.9946 0.666382H34.667V47.6895H27.2911L7.33603 12.2611V47.6895H0.663696V0.666382H8.04397L27.999 35.4506V0.666382H27.9946Z" stroke="white" stroke-width="3"/>
<path d="M71.3028 10.3287L79.8999 35.9659L87.5324 0.666382H94.333L84.0679 47.6895H77.3292L67.7056 20.4396L58.0821 47.6895H51.3434L41.0826 0.666382H47.8833L55.5202 36.0326L64.1836 10.3287H71.3028Z" stroke="white" stroke-width="3"/>
<path d="M127.695 7.04571L113.965 18.1918C122.372 18.6405 128.336 24.8288 128.336 33.2027C128.336 40.6083 122.239 48.3425 112.939 48.3425C103.957 48.3425 97.5409 41.5767 97.5409 33.8469H103.957C103.957 38.6803 107.806 42.2209 112.939 42.2209C118.071 42.2209 121.921 38.0317 121.921 33.2027C121.921 27.4054 117.748 23.8603 112.297 23.8603H105.815V18.0585L119.031 7.04127H99.4656V0.666382H123.845L127.695 7.04571Z" stroke="white" stroke-width="3"/>
</g>
<defs>
<clipPath id="clip0">
<rect width="129" height="49" fill="white"/>
</clipPath>
</defs>
</svg>
