<svg width="131" height="51" viewBox="0 0 131 51" fill="none" xmlns="http://www.w3.org/2000/svg">
<path d="M28.9945 1.66602H35.6668V48.6891H28.291L8.33591 13.2608V48.6891H1.66357V1.66602H9.04385L28.9989 36.4502V1.66602H28.9945Z" fill="black" stroke="black" stroke-width="3"/>
<path d="M72.3027 11.3283L80.8998 36.9656L88.5322 1.66602H95.3329L85.0678 48.6891H78.3291L68.7055 21.4393L59.0819 48.6891H52.3432L42.0825 1.66602H48.8832L56.5201 37.0322L65.1835 11.3283H72.3027Z" fill="black" stroke="black" stroke-width="3"/>
<path d="M128.695 8.04534L114.965 19.1914C123.372 19.6401 129.336 25.8284 129.336 34.2024C129.336 41.6079 123.239 49.3422 113.938 49.3422C104.956 49.3422 98.5408 42.5764 98.5408 34.8465H104.956C104.956 39.6799 108.806 43.2205 113.938 43.2205C119.071 43.2205 122.92 39.0313 122.92 34.2024C122.92 28.405 118.748 24.8599 113.297 24.8599H106.815V19.0581L120.031 8.0409H100.465V1.66602H124.845L128.695 8.04534Z" fill="black" stroke="black" stroke-width="3"/>
</svg>
