<svg width="14" height="16" viewBox="0 0 14 16" fill="none" xmlns="http://www.w3.org/2000/svg">
<path d="M13.9124 7.25001C13.8569 7.09177 13.7736 6.94721 13.6673 6.82461L7.83159 0.379113C7.72276 0.25892 7.59357 0.163577 7.45139 0.0985287C7.3092 0.0334803 7.15681 0 7.00291 0C6.6921 0 6.39401 0.136371 6.17423 0.379113C6.06541 0.499307 5.97908 0.641998 5.92019 0.799038C5.8613 0.956079 5.83098 1.12439 5.83098 1.29437C5.83098 1.63766 5.95445 1.96689 6.17423 2.20963L10.0258 6.45077H1.16715C0.857604 6.45077 0.560734 6.58658 0.341851 6.82834C0.122968 7.07009 0 7.39798 0 7.73987C0 8.08176 0.122968 8.40964 0.341851 8.6514C0.560734 8.89315 0.857604 9.02897 1.16715 9.02897H10.0258L6.17423 13.2701C6.06484 13.3899 5.97801 13.5325 5.91875 13.6896C5.8595 13.8467 5.82899 14.0152 5.82899 14.1854C5.82899 14.3555 5.8595 14.524 5.91875 14.6811C5.97801 14.8382 6.06484 14.9808 6.17423 15.1006C6.28273 15.2214 6.41182 15.3173 6.55405 15.3828C6.69628 15.4482 6.84883 15.4819 7.00291 15.4819C7.15699 15.4819 7.30954 15.4482 7.45177 15.3828C7.594 15.3173 7.72309 15.2214 7.83159 15.1006L13.6673 8.65513C13.7736 8.53253 13.8569 8.38796 13.9124 8.22972C14.0292 7.91588 14.0292 7.56386 13.9124 7.25001Z" fill="#D7D2CB"/>
</svg>
