<svg width="67" height="44" viewBox="0 0 67 44" fill="none" xmlns="http://www.w3.org/2000/svg">
<g clip-path="url(#clip0)">
<path d="M53.3292 42.3603C53.1337 42.6902 52.8747 42.978 52.5672 43.2071C52.2598 43.4362 51.9099 43.602 51.5379 43.695C51.1659 43.788 50.7792 43.8063 50.4 43.7489C50.0209 43.6914 49.657 43.5594 49.3292 43.3603C38.4492 36.6703 24.7492 35.1703 8.59922 38.8803C8.22251 38.9847 7.82854 39.0116 7.44115 38.9594C7.05375 38.9071 6.68098 38.7768 6.34539 38.5764C6.0098 38.3759 5.71836 38.1095 5.48871 37.7931C5.25906 37.4768 5.09597 37.1172 5.00931 36.736C4.92265 36.3548 4.91422 35.96 4.98453 35.5755C5.05483 35.191 5.20242 34.8247 5.41835 34.4989C5.63429 34.173 5.91408 33.8944 6.24081 33.6798C6.56754 33.4652 6.93441 33.3191 7.31922 33.2503C24.9792 29.2503 40.1392 30.9503 52.3692 38.4203C53.0144 38.8196 53.4767 39.4565 53.6563 40.1937C53.8359 40.9308 53.7184 41.7091 53.3292 42.3603ZM58.9992 29.7403C58.7504 30.1482 58.4233 30.5028 58.0367 30.7837C57.6502 31.0645 57.2119 31.266 56.7471 31.3767C56.2822 31.4873 55.8001 31.5048 55.3285 31.4282C54.8569 31.3516 54.4051 31.1824 53.9992 30.9303C41.5292 23.2703 22.5192 21.0503 7.77922 25.5203C7.31768 25.685 6.82751 25.7543 6.33841 25.7239C5.8493 25.6936 5.37146 25.5642 4.93383 25.3437C4.49619 25.1232 4.10788 24.8162 3.79243 24.4412C3.47698 24.0662 3.24095 23.631 3.09864 23.1621C2.95634 22.6932 2.91072 22.2002 2.96456 21.7132C3.0184 21.2261 3.17058 20.755 3.41186 20.3285C3.65314 19.902 3.97851 19.5289 4.36825 19.2318C4.758 18.9348 5.20399 18.7199 5.67922 18.6003C22.5492 13.4903 43.4492 15.9703 57.8092 24.7703C58.2181 25.0182 58.5737 25.3449 58.8553 25.7313C59.1369 26.1178 59.3389 26.5563 59.4497 27.0215C59.5604 27.4867 59.5776 27.9692 59.5002 28.4411C59.4229 28.913 59.2526 29.3648 58.9992 29.7703V29.7403ZM59.4492 16.5803C44.4492 7.71034 19.8392 6.89034 5.55922 11.2203C4.45326 11.5492 3.26197 11.4253 2.24739 10.8758C1.23282 10.3263 0.478086 9.39629 0.149217 8.29034C-0.179651 7.18438 -0.0557114 5.99309 0.49377 4.97852C1.04325 3.96394 1.97326 3.20921 3.07922 2.88034C19.4692 -2.11966 46.7092 -1.11966 63.9192 9.08034C64.9138 9.6731 65.6321 10.6367 65.9163 11.7591C66.2004 12.8815 66.027 14.0708 65.4342 15.0653C64.8415 16.0599 63.8779 16.7783 62.7555 17.0624C61.6331 17.3465 60.4438 17.1731 59.4492 16.5803V16.5803Z" fill="black"/>
</g>
<defs>
<clipPath id="clip0">
<rect width="66.04" height="43.75" fill="white"/>
</clipPath>
</defs>
</svg>
